<svg width="159" height="41" viewBox="0 0 159 41" fill="none" xmlns="http://www.w3.org/2000/svg">
<path d="M19.6265 23.3243H27.5502V5.96174C27.5502 4.15676 27.8069 2.79889 28.3202 1.88812C28.8501 0.977356 29.4794 0.521973 30.208 0.521973C30.5723 0.521973 30.9117 0.629609 31.2264 0.844881C31.5576 1.06015 31.8474 1.31682 32.0957 1.61489C32.3441 1.8964 32.5346 2.19447 32.667 2.5091C32.8161 2.80717 32.8906 3.04728 32.8906 3.22944C32.8906 3.41159 32.8161 3.51923 32.667 3.55234C32.5346 3.5689 32.3773 3.65998 32.1951 3.82557C32.0295 3.97461 31.8722 4.28096 31.7232 4.74462C31.5907 5.20828 31.5244 5.97002 31.5244 7.02982V38.9232C31.5244 39.3538 31.3754 39.6518 31.0773 39.8174C30.7958 39.9996 30.4646 40.0907 30.0838 40.0907C29.7857 40.0907 29.4876 40.0493 29.1896 39.9665C28.8915 39.8837 28.6183 39.776 28.3699 39.6436C28.138 39.5111 27.9393 39.3538 27.7737 39.1716C27.6247 39.006 27.5502 38.8239 27.5502 38.6252V26.8763H19.6265V38.9232C19.6265 39.3538 19.4775 39.6518 19.1794 39.8174C18.8979 39.9996 18.5667 40.0907 18.1858 40.0907C17.8878 40.0907 17.5897 40.0493 17.2916 39.9665C16.9936 39.8837 16.7203 39.776 16.4719 39.6436C16.2401 39.5111 16.0414 39.3538 15.8758 39.1716C15.7268 39.006 15.6523 38.8239 15.6523 38.6252V26.8763H12.0257C11.7608 26.8763 11.5124 26.7935 11.2806 26.6279C11.0653 26.4623 10.8749 26.2553 10.7093 26.0069C10.5602 25.7419 10.436 25.4604 10.3367 25.1624C10.2539 24.8643 10.2125 24.5828 10.2125 24.3178C10.2125 24.0363 10.2704 23.8045 10.3864 23.6223C10.5188 23.4236 10.7093 23.3243 10.9577 23.3243H15.6523V6.88078C14.0791 6.88078 12.6302 7.14574 11.3054 7.67564C9.99722 8.18898 8.8629 8.93415 7.90245 9.91116C6.95857 10.8716 6.21339 12.039 5.66693 13.4135C5.13703 14.7879 4.87208 16.3279 4.87208 18.0335C4.87208 19.1099 4.97972 20.0786 5.19499 20.9397C5.41026 21.8008 5.66693 22.5377 5.965 23.1504C6.26307 23.7465 6.56114 24.2102 6.85921 24.5414C7.15728 24.8726 7.38911 25.0382 7.5547 25.0382C7.70374 25.0382 7.81138 24.9968 7.87761 24.914C7.94385 24.8312 8.04321 24.7898 8.17568 24.7898C8.30816 24.7898 8.39095 24.8809 8.42407 25.063C8.45719 25.2452 8.47375 25.4273 8.47375 25.6095C8.47375 26.1394 8.36612 26.6444 8.15084 27.1247C7.93557 27.5883 7.66234 27.9692 7.33115 28.2673C7.01652 28.5488 6.6605 28.7226 6.26307 28.7889C5.86565 28.8551 5.48478 28.7558 5.12047 28.4908C4.67337 28.1762 4.19315 27.7291 3.6798 27.1495C3.18302 26.5534 2.71936 25.8247 2.28881 24.9637C1.87483 24.1026 1.52708 23.109 1.24557 21.983C0.98062 20.8404 0.848145 19.5736 0.848145 18.1826C0.848145 16.3776 1.07998 14.7548 1.54364 13.3141C2.02386 11.8569 2.6614 10.5735 3.45625 9.46405C4.26766 8.33801 5.21983 7.37757 6.31275 6.58272C7.40567 5.7713 8.56483 5.10893 9.79023 4.59559C11.0322 4.06569 12.3155 3.67654 13.6403 3.42815C14.9816 3.17976 16.2981 3.05556 17.5897 3.05556C17.8547 3.05556 18.1113 3.11352 18.3597 3.22944C18.6081 3.32879 18.8234 3.47783 19.0055 3.67654C19.1877 3.85869 19.3367 4.08225 19.4526 4.3472C19.5686 4.61215 19.6265 4.89366 19.6265 5.19173V23.3243Z" fill="#2B0039"/>
<path d="M55.1908 30.1902C55.224 29.9915 55.3316 29.8259 55.5138 29.6934C55.7125 29.5609 55.936 29.4698 56.1844 29.4202C56.4328 29.3705 56.6895 29.3705 56.9544 29.4202C57.2359 29.4698 57.476 29.5857 57.6748 29.7679C57.89 29.9335 58.0391 30.1736 58.1219 30.4882C58.2212 30.7863 58.2129 31.1755 58.097 31.6557C57.948 32.3512 57.6996 33.0053 57.3518 33.618C57.0207 34.2141 56.5984 34.744 56.0851 35.2077C55.5717 35.6713 54.9673 36.0356 54.2718 36.3006C53.5763 36.5655 52.798 36.698 51.9369 36.698C51.4733 36.698 51.0344 36.6732 50.6204 36.6235C50.223 36.5738 49.8339 36.4827 49.453 36.3503C48.8237 37.4432 48.0123 38.3208 47.0188 38.9832C46.0252 39.6621 44.7998 40.0016 43.3426 40.0016C42.051 40.0016 40.9415 39.7449 40.0141 39.2316C39.0868 38.7348 38.3168 38.0559 37.7041 37.1948C37.0914 36.3171 36.636 35.307 36.338 34.1644C36.0564 33.0218 35.9157 31.813 35.9157 30.5379C35.9157 28.6667 36.131 26.9942 36.5615 25.5204C37.0086 24.0301 37.522 22.7716 38.1015 21.7449C38.6811 20.7016 39.2524 19.9068 39.8154 19.3603C40.395 18.8139 40.8256 18.5406 41.1071 18.5406C41.4383 18.5406 41.7363 18.6897 42.0013 18.9877C42.2828 19.2692 42.4815 19.6087 42.5974 20.0061C42.7299 20.387 42.763 20.7761 42.6968 21.1736C42.6471 21.571 42.4567 21.8773 42.1255 22.0926C41.9268 22.4072 41.6866 22.7716 41.4051 23.1855C41.1402 23.5995 40.8835 24.1211 40.6351 24.7504C40.4033 25.3631 40.2046 26.1166 40.039 27.0108C39.8734 27.905 39.7906 28.9813 39.7906 30.2398C39.7906 31.3162 39.8817 32.2518 40.0638 33.0467C40.2625 33.8415 40.5275 34.5122 40.8587 35.0586C41.2064 35.5885 41.5956 35.986 42.0261 36.2509C42.4732 36.5159 42.9452 36.6483 43.4419 36.6483C44.1706 36.6483 44.7667 36.4745 45.2304 36.1267C45.7106 35.7624 46.1163 35.2905 46.4475 34.7109C45.2552 33.6842 44.3444 32.3843 43.7152 30.8111C43.1025 29.2214 42.7961 27.5075 42.7961 25.6695C42.7961 24.8746 42.8789 24.1211 43.0445 23.4091C43.2267 22.6805 43.4833 22.0429 43.8145 21.4965C44.1623 20.95 44.5928 20.5195 45.1062 20.2048C45.6195 19.8737 46.2156 19.7081 46.8946 19.7081C47.4907 19.7081 48.0537 19.9233 48.5836 20.3539C49.1135 20.7844 49.5772 21.3806 49.9746 22.1423C50.3721 22.904 50.6784 23.8065 50.8937 24.8498C51.1255 25.893 51.2414 27.0273 51.2414 28.2527C51.2414 29.1966 51.1835 30.1322 51.0676 31.0595C50.9516 31.9869 50.7695 32.8811 50.5211 33.7422C50.7032 33.8084 50.8688 33.8498 51.0179 33.8664C51.1835 33.8664 51.3573 33.8664 51.5395 33.8664C52.086 33.8664 52.5662 33.767 52.9802 33.5683C53.4107 33.3696 53.775 33.1046 54.0731 32.7734C54.3712 32.4422 54.6113 32.0531 54.7934 31.606C54.9756 31.1589 55.108 30.687 55.1908 30.1902ZM45.4787 25.4707C45.4787 26.6133 45.6526 27.698 46.0004 28.7247C46.3647 29.7513 46.8366 30.6456 47.4162 31.4073C47.5156 30.5959 47.5652 29.8176 47.5652 29.0724C47.5652 28.2113 47.5487 27.4165 47.5156 26.6879C47.499 25.9427 47.441 25.3051 47.3417 24.7752C47.2589 24.2453 47.1347 23.8314 46.9691 23.5333C46.8201 23.2187 46.6131 23.0613 46.3481 23.0613C45.7685 23.0613 45.4787 23.8645 45.4787 25.4707Z" fill="#2B0039"/>
<path d="M59.0657 23.5333C59.2479 23.1855 59.4218 22.7219 59.5874 22.1423C59.7695 21.5462 59.9351 20.8921 60.0841 20.18C60.2497 19.468 60.3988 18.7228 60.5312 17.9445C60.6637 17.1662 60.7796 16.4045 60.879 15.6593C60.9784 14.9141 61.0529 14.2186 61.1026 13.5728C61.1688 12.9104 61.2019 12.3474 61.2019 11.8837C61.2019 10.1947 61.0777 8.96101 60.8293 8.18272C60.5809 7.38786 60.2497 6.99044 59.8358 6.99044C59.7033 6.99044 59.5874 7.05668 59.488 7.18915C59.3887 7.32163 59.3059 7.4955 59.2396 7.71077C59.1734 7.90949 59.1237 8.13304 59.0906 8.38143C59.074 8.61326 59.0657 8.82853 59.0657 9.02725V23.5333ZM66.2939 31.2086C66.3933 30.7118 66.5423 30.3558 66.741 30.1405C66.9563 29.9087 67.1799 29.7845 67.4117 29.7679C67.6601 29.7348 67.9085 29.7927 68.1569 29.9418C68.4053 30.0743 68.6205 30.2564 68.8027 30.4882C68.9848 30.7201 69.1173 30.985 69.2001 31.2831C69.2995 31.5646 69.316 31.8461 69.2498 32.1276C69.0179 32.8066 68.6868 33.6014 68.2562 34.5122C67.8257 35.4229 67.2792 36.284 66.6168 37.0954C65.9545 37.9069 65.1762 38.5941 64.282 39.1571C63.3877 39.7201 62.3611 40.0016 61.2019 40.0016C60.2249 40.0016 59.3638 39.836 58.6186 39.5048C57.8735 39.1902 57.2442 38.7431 56.7309 38.1635C56.2341 37.5674 55.8532 36.8636 55.5883 36.0522C55.3399 35.2242 55.2157 34.3052 55.2157 33.2951V10.145C55.2157 9.20112 55.3316 8.33175 55.5634 7.5369C55.8118 6.72549 56.143 6.03827 56.557 5.47525C56.9875 4.89567 57.4843 4.44857 58.0473 4.13394C58.6104 3.80275 59.2065 3.63716 59.8358 3.63716C60.5809 3.63716 61.2102 3.77791 61.7235 4.05942C62.2369 4.32437 62.6591 4.6804 62.9903 5.12751C63.3215 5.57461 63.5782 6.08795 63.7603 6.66753C63.9591 7.24711 64.0998 7.84325 64.1826 8.45595C64.2654 9.05209 64.3151 9.64822 64.3316 10.2444C64.3482 10.8239 64.3565 11.3538 64.3565 11.8341C64.3565 13.076 64.2406 14.3842 64.0087 15.7586C63.7769 17.1165 63.4788 18.4578 63.1145 19.7826C62.7668 21.1073 62.3776 22.3824 61.9471 23.6078C61.5331 24.8166 61.1274 25.893 60.73 26.8369C60.3491 27.7808 60.0014 28.5508 59.6867 29.1469C59.3887 29.7431 59.1817 30.0908 59.0657 30.1902V33.146C59.0657 34.1727 59.281 35.0172 59.7116 35.6796C60.1421 36.3254 60.8293 36.6483 61.7732 36.6483C62.3528 36.6483 62.891 36.4745 63.3877 36.1267C63.9011 35.7624 64.3482 35.3153 64.7291 34.7854C65.1265 34.2389 65.4577 33.6511 65.7226 33.0218C65.9876 32.376 66.178 31.7716 66.2939 31.2086Z" fill="#2B0039"/>
<path d="M69.1256 14.1193C68.7116 14.1193 68.3142 14.0365 67.9333 13.8709C67.569 13.7053 67.2461 13.4817 66.9646 13.2002C66.6996 12.9187 66.4844 12.5958 66.3188 12.2315C66.1532 11.8506 66.0704 11.4449 66.0704 11.0144C66.0704 10.5673 66.1532 10.1533 66.3188 9.77242C66.4844 9.39155 66.6996 9.06864 66.9646 8.80369C67.2461 8.52218 67.569 8.30691 67.9333 8.15788C68.3142 7.99228 68.7116 7.90949 69.1256 7.90949C69.5727 7.90949 69.9867 7.99228 70.3675 8.15788C70.7484 8.30691 71.0713 8.52218 71.3363 8.80369C71.6178 9.06864 71.833 9.39155 71.9821 9.77242C72.1477 10.1533 72.2305 10.5673 72.2305 11.0144C72.2305 11.4449 72.1477 11.8506 71.9821 12.2315C71.833 12.5958 71.6178 12.9187 71.3363 13.2002C71.0713 13.4817 70.7484 13.7053 70.3675 13.8709C69.9867 14.0365 69.5727 14.1193 69.1256 14.1193ZM70.293 34.3135C70.293 34.4294 70.3013 34.6198 70.3179 34.8848C70.3344 35.1331 70.3841 35.3898 70.4669 35.6548C70.5497 35.9197 70.6822 36.1516 70.8643 36.3503C71.0465 36.549 71.3032 36.6483 71.6343 36.6483C72.1311 36.6483 72.5617 36.4662 72.926 36.1019C73.3068 35.7376 73.6297 35.2822 73.8947 34.7357C74.1762 34.1893 74.408 33.6014 74.5902 32.9721C74.7723 32.3263 74.9214 31.7219 75.0373 31.1589C75.1366 30.6456 75.2857 30.273 75.4844 30.0411C75.6997 29.8093 75.9232 29.6851 76.1551 29.6685C76.4034 29.6354 76.6436 29.6934 76.8754 29.8424C77.1238 29.9915 77.339 30.1902 77.5212 30.4386C77.7199 30.6704 77.8607 30.9353 77.9435 31.2334C78.0428 31.5315 78.0594 31.813 77.9931 32.0779C77.7613 32.9225 77.455 33.8084 77.0741 34.7357C76.7098 35.6631 76.2379 36.5159 75.6583 37.2942C75.0787 38.0724 74.3832 38.7183 73.5718 39.2316C72.7604 39.7449 71.8082 40.0016 70.7153 40.0016C70.0364 40.0016 69.4319 39.8691 68.902 39.6042C68.3721 39.3558 67.925 39.0163 67.5607 38.5858C67.1964 38.1552 66.9149 37.6502 66.7162 37.0706C66.534 36.491 66.443 35.8783 66.443 35.2325V21.6455C66.443 21.1653 66.4016 20.8175 66.3188 20.6023C66.2525 20.387 66.2194 20.1883 66.2194 20.0061C66.2194 19.7577 66.3519 19.559 66.6168 19.41C66.8818 19.2444 67.1964 19.1616 67.5607 19.1616C68.4053 19.1616 69.0676 19.3852 69.5479 19.8323C70.0446 20.2628 70.293 20.7844 70.293 21.3971V34.3135Z" fill="#2B0039"/>
<path d="M80.9242 40.0016C79.9306 40.0016 79.0281 39.8277 78.2167 39.48C77.4053 39.1322 76.7098 38.6189 76.1302 37.94C75.5672 37.2445 75.1284 36.3917 74.8137 35.3815C74.5157 34.3549 74.3666 33.1709 74.3666 31.8295C74.3666 29.8755 74.6399 28.1368 75.1863 26.6133C75.7328 25.0733 76.478 23.7568 77.4218 22.6639C78.3657 21.5544 79.4587 20.6768 80.7006 20.031C81.9426 19.3686 83.259 18.9381 84.65 18.7393V7.23883C84.65 6.87452 84.6169 6.58473 84.5507 6.36946C84.501 6.15419 84.443 5.9886 84.3768 5.87268C84.3271 5.7402 84.2692 5.64085 84.2029 5.57461C84.1532 5.49181 84.1284 5.40902 84.1284 5.32622C84.1284 5.22686 84.1781 5.14407 84.2774 5.07783C84.3768 5.01159 84.5093 4.95363 84.6749 4.90395C84.8405 4.85428 85.0143 4.82116 85.1965 4.8046C85.3952 4.77148 85.5856 4.75492 85.7678 4.75492C86.6123 4.75492 87.2747 4.97847 87.7549 5.42558C88.2517 5.85612 88.5001 6.37774 88.5001 6.99044V34.3135C88.5001 34.595 88.5332 34.8765 88.5994 35.158C88.6657 35.4229 88.765 35.6713 88.8975 35.9032C89.0465 36.1184 89.2287 36.3006 89.444 36.4496C89.6758 36.5821 89.9408 36.6483 90.2388 36.6483C90.7522 36.6483 91.191 36.4662 91.5553 36.1019C91.9362 35.7376 92.2591 35.2822 92.524 34.7357C92.8055 34.1893 93.0291 33.6014 93.1947 32.9721C93.3768 32.3263 93.5259 31.7219 93.6418 31.1589C93.7411 30.629 93.9067 30.2481 94.1386 30.0163C94.3704 29.7679 94.6105 29.6437 94.8589 29.6437C95.0576 29.6437 95.2646 29.7099 95.4799 29.8424C95.6952 29.9583 95.8856 30.1157 96.0512 30.3144C96.2333 30.5131 96.3741 30.7366 96.4734 30.985C96.5894 31.2334 96.6473 31.4818 96.6473 31.7302C96.6473 31.7633 96.6473 31.8047 96.6473 31.8544C96.6473 31.9041 96.6308 31.9786 96.5976 32.0779C96.3824 32.9225 96.0843 33.8084 95.7034 34.7357C95.3391 35.6631 94.8589 36.5159 94.2628 37.2942C93.6832 38.0724 92.9877 38.7183 92.1763 39.2316C91.3649 39.7449 90.4127 40.0016 89.3198 40.0016C88.4421 40.0016 87.6721 39.8195 87.0097 39.4552C86.3474 39.0908 85.8257 38.6106 85.4449 38.0145C84.8819 38.5941 84.2278 39.066 83.4826 39.4303C82.754 39.8112 81.9012 40.0016 80.9242 40.0016ZM81.6942 36.6483C82.3566 36.6483 82.9279 36.4579 83.4081 36.077C83.9049 35.6962 84.3188 35.2242 84.65 34.6612V22.0926C83.8221 22.2417 83.0189 22.5232 82.2406 22.9371C81.4789 23.3346 80.8 23.8976 80.2038 24.6262C79.6242 25.3548 79.1606 26.2821 78.8128 27.4082C78.4651 28.5177 78.2912 29.8673 78.2912 31.457C78.2912 32.3843 78.3823 33.1791 78.5644 33.8415C78.7632 34.4873 79.0116 35.0172 79.3096 35.4312C79.6243 35.8452 79.9886 36.1516 80.4025 36.3503C80.8165 36.549 81.2471 36.6483 81.6942 36.6483Z" fill="#2B0039"/>
<path d="M108.247 36.6483C108.761 36.6483 109.199 36.4662 109.564 36.1019C109.944 35.7376 110.267 35.2822 110.532 34.7357C110.814 34.1893 111.037 33.6014 111.203 32.9721C111.385 32.3263 111.534 31.7219 111.65 31.1589C111.703 30.9152 111.767 30.703 111.842 30.5224C111.929 30.3102 112.031 30.1415 112.147 30.0163C112.379 29.7679 112.627 29.6437 112.892 29.6437C113.091 29.6437 113.289 29.7099 113.488 29.8424C113.703 29.9583 113.894 30.1157 114.06 30.3144C114.242 30.5131 114.382 30.7366 114.482 30.985C114.598 31.2334 114.656 31.4818 114.656 31.7302C114.656 31.7633 114.656 31.8047 114.656 31.8544C114.656 31.9041 114.639 31.9786 114.606 32.0779C114.604 32.0874 114.601 32.0969 114.599 32.1064C114.592 32.1308 114.586 32.1553 114.58 32.1798C114.367 32.9936 114.077 33.8456 113.712 34.7357C113.347 35.6631 112.876 36.5159 112.296 37.2942C111.716 38.0724 111.013 38.7183 110.185 39.2316C109.373 39.7449 108.421 40.0016 107.328 40.0016C106.434 40.0016 105.656 39.8112 104.993 39.4303C104.331 39.0495 103.809 38.5444 103.428 37.9151C102.915 38.4947 102.294 38.9832 101.565 39.3806C100.853 39.7946 100.017 40.0016 99.0567 40.0016C98.0631 40.0016 97.1855 39.8029 96.4238 39.4055C95.6786 39.0081 95.0493 38.4699 94.536 37.7909C94.0227 37.0954 93.6335 36.284 93.3686 35.3567C93.1202 34.4128 92.996 33.4027 92.996 32.3263C92.996 30.2067 93.3354 28.3024 94.0144 26.6133C94.6933 24.9243 95.5958 23.4919 96.7218 22.3162C97.8479 21.1239 99.1312 20.2131 100.572 19.5839C102.029 18.9546 103.536 18.64 105.093 18.64C105.788 18.64 106.351 18.8304 106.782 19.2113C107.212 19.5921 107.427 20.1138 107.427 20.7761C107.427 21.2067 107.378 21.513 107.278 21.6952C107.196 21.8608 107.03 21.9436 106.782 21.9436C106.55 21.9436 106.31 21.927 106.061 21.8939C105.813 21.8608 105.556 21.8442 105.291 21.8442C104.331 21.8442 103.354 22.0595 102.36 22.49C101.367 22.904 100.464 23.5498 99.6528 24.4275C98.858 25.2886 98.2039 26.3898 97.6906 27.7311C97.1772 29.0558 96.9205 30.6373 96.9205 32.4754C96.9205 33.8167 97.1772 34.8516 97.6906 35.5803C98.2039 36.2923 98.9077 36.6483 99.8019 36.6483C100.497 36.6483 101.077 36.3917 101.541 35.8783C102.004 35.3484 102.377 34.7274 102.658 34.0154V26.1662C102.658 25.9178 102.642 25.7108 102.609 25.5453C102.592 25.3797 102.567 25.2389 102.534 25.123C102.518 25.0071 102.501 24.9077 102.485 24.8249C102.468 24.7256 102.46 24.6345 102.46 24.5517C102.46 24.2867 102.584 24.0797 102.832 23.9307C103.097 23.7651 103.412 23.6823 103.776 23.6823C104.621 23.6823 105.291 23.9059 105.788 24.353C106.285 24.7835 106.533 25.3051 106.533 25.9178V34.3135C106.533 34.595 106.566 34.8765 106.633 35.158C106.699 35.4229 106.798 35.6713 106.931 35.9032C107.063 36.1184 107.237 36.3006 107.452 36.4496C107.684 36.5821 107.949 36.6483 108.247 36.6483Z" fill="#2B0039"/>
<path d="M141.929 23.7817C141.929 24.7256 141.763 25.6943 141.432 26.6879C141.118 27.6814 140.637 28.6253 139.992 29.5195C139.362 30.3972 138.576 31.192 137.632 31.9041C136.705 32.5996 135.628 33.1295 134.403 33.4938C134.568 33.9243 134.784 34.3383 135.049 34.7357C135.33 35.1166 135.661 35.4478 136.042 35.7293C136.423 36.0108 136.862 36.2344 137.359 36.3999C137.872 36.5655 138.46 36.6483 139.122 36.6483C140.116 36.6483 140.969 36.4662 141.681 36.1019C142.393 35.721 142.989 35.2242 143.469 34.6115C143.966 33.9988 144.363 33.3116 144.661 32.5499C144.959 31.7882 145.183 31.0181 145.332 30.2398C145.448 29.6768 145.68 29.3042 146.027 29.1221C146.392 28.9234 146.756 28.8737 147.12 28.9731C147.501 29.0724 147.824 29.2877 148.089 29.6189C148.371 29.9335 148.487 30.3144 148.437 30.7615C148.371 31.2748 148.255 31.8627 148.089 32.525C147.94 33.1874 147.708 33.8581 147.394 34.537C147.079 35.2159 146.673 35.8866 146.176 36.549C145.696 37.1948 145.1 37.7744 144.388 38.2877C143.676 38.8011 142.84 39.215 141.879 39.5297C140.919 39.8443 139.818 40.0016 138.576 40.0016C137.417 40.0016 136.291 39.7698 135.198 39.3061C134.121 38.859 133.161 38.2132 132.316 37.3687C131.975 37.0135 131.66 36.626 131.372 36.206C130.962 35.6078 130.606 34.9438 130.304 34.2141C130.042 33.5504 129.849 32.8408 129.726 32.085C129.615 31.4076 129.559 30.6932 129.559 29.9418C129.559 28.3355 129.783 26.8452 130.23 25.4707C130.677 24.0797 131.265 22.8792 131.993 21.8691C132.722 20.8589 133.55 20.0724 134.477 19.5093C135.405 18.9298 136.357 18.64 137.334 18.64C138.046 18.64 138.683 18.7642 139.246 19.0126C139.826 19.261 140.314 19.617 140.712 20.0807C141.109 20.5278 141.407 21.0659 141.606 21.6952C141.821 22.3244 141.929 23.0199 141.929 23.7817ZM133.732 29.7927C133.732 29.9418 133.74 30.0908 133.757 30.2398C133.773 30.3889 133.782 30.5462 133.782 30.7118C134.411 30.4137 134.982 30.0329 135.496 29.5692C136.009 29.1055 136.448 28.5756 136.812 27.9795C137.176 27.3833 137.458 26.7375 137.657 26.042C137.855 25.33 137.955 24.5931 137.955 23.8314C137.955 23.2683 137.855 22.8295 137.657 22.5149C137.475 22.2003 137.218 22.0429 136.887 22.0429C136.473 22.0429 136.1 22.1837 135.769 22.4652C135.454 22.7467 135.173 23.1193 134.924 23.583C134.693 24.0301 134.494 24.5434 134.328 25.123C134.179 25.686 134.055 26.2573 133.956 26.8369C133.856 27.4165 133.79 27.9712 133.757 28.5011C133.724 29.0144 133.716 29.445 133.732 29.7927Z" fill="#2B0039"/>
<path d="M112.147 30.0163C112.379 29.7679 112.627 29.6437 112.892 29.6437C113.091 29.6437 113.289 29.7099 113.488 29.8424C113.703 29.9583 113.894 30.1157 114.06 30.3144C114.242 30.5131 114.382 30.7366 114.482 30.985C114.598 31.2334 114.656 31.4818 114.656 31.7302V31.8544C114.656 31.9041 114.639 31.9786 114.606 32.0779L114.599 32.1064C114.592 32.1308 114.586 32.1553 114.58 32.1798C114.616 32.0735 114.65 31.9568 114.68 31.8295C115.144 29.859 115.6 28.2362 116.047 26.9611C116.51 25.686 116.974 24.6842 117.438 23.9556C117.918 23.2104 118.423 22.697 118.953 22.4155C119.483 22.134 120.062 21.9933 120.692 21.9933C121.188 21.9933 121.619 22.0843 121.983 22.2665C122.347 22.4486 122.646 22.6888 122.877 22.9868C123.126 23.2849 123.308 23.6326 123.424 24.0301C123.54 24.4109 123.598 24.8166 123.598 25.2472C123.598 26.5223 123.374 27.6731 122.927 28.6998C122.497 29.7265 121.934 30.629 121.238 31.4073C120.543 32.1856 119.756 32.8397 118.878 33.3696C117.084 34.4529 115.319 36.3529 115.319 36.3529C114.68 37.9974 115.319 38.5954 116.742 39.1436C125.114 41.5898 129.254 38.8234 131.372 36.206C130.962 35.6078 130.606 34.9438 130.304 34.2141C130.042 33.5504 129.849 32.8408 129.726 32.085C128.968 34.0305 128.221 34.8408 126.256 35.7293C126.256 35.7293 123.791 37.2942 119.58 36.5273C122.221 34.5837 122.695 34.0568 123.474 33.4441C124.268 32.8148 124.956 32.1028 125.535 31.3079C126.131 30.5131 126.595 29.6437 126.926 28.6998C127.274 27.7559 127.448 26.7458 127.448 25.6695C127.448 24.6924 127.29 23.7817 126.976 22.9371C126.678 22.0761 126.239 21.3309 125.659 20.7016C125.096 20.0558 124.393 19.5507 123.548 19.1864C122.704 18.8221 121.751 18.64 120.692 18.64C119.218 18.64 117.984 18.9463 116.991 19.559C116.014 20.1717 115.194 21.008 114.531 22.0678C113.869 23.1276 113.331 24.3861 112.917 25.8433C112.519 27.284 112.163 28.8323 111.849 30.4882C111.846 30.4995 111.844 30.5109 111.842 30.5224C111.929 30.3102 112.031 30.1415 112.147 30.0163Z" fill="#2B0039"/>
<path d="M149.364 17.5467C149.872 15.9844 152.082 15.9844 152.59 17.5467L153.308 19.7559C153.535 20.4545 154.186 20.9275 154.92 20.9275H157.243C158.886 20.9275 159.569 23.0295 158.24 23.9951L156.361 25.3604C155.766 25.7922 155.518 26.5576 155.745 27.2563L156.462 29.4655C156.97 31.0277 155.182 32.3268 153.853 31.3613L151.974 29.9959C151.38 29.5641 150.575 29.5641 149.98 29.9959L148.101 31.3613C146.772 32.3268 144.984 31.0277 145.492 29.4655L146.21 27.2563C146.437 26.5576 146.188 25.7922 145.594 25.3604L143.714 23.9951C142.385 23.0295 143.068 20.9275 144.711 20.9275H147.034C147.769 20.9275 148.42 20.4545 148.647 19.7559L149.364 17.5467Z" fill="#2B0039"/>
</svg>
